# xmcd
#
# Track frame offsets: 
#        150
#        18577
#        39500
#        57240
#        72962
#        89430
#        103900
#        121162
#        141680
#        158965
#        178010
#        192847
#        214392
#
# Disc length: 3113 seconds
#
# Revision: 1
# Processed by: cddbd v1.5.2PL0 Copyright (c) Steve Scherf et al.
# Submitted via: ExactAudioCopy v0.99pb5
#
DISCID=c50c270d
DTITLE=Los Hermanos Rosario - Aura
DYEAR=2007
DGENRE=Merengue
TTITLE0=Con agua y jabón
TTITLE1=Aló
TTITLE2=Tengo envidia
TTITLE3=Rumba
TTITLE4=El culpable
TTITLE5=Por ti
TTITLE6=El milagro de tus ojos
TTITLE7=El Higüeyano
TTITLE8=Tú querías más
TTITLE9=Te eché de menos
TTITLE10=Otra vez a sufrir
TTITLE11=Me voy pal pueblo
TTITLE12=Karen
EXTD=YEAR: 2007
EXTT0=
EXTT1=
EXTT2=
EXTT3=
EXTT4=
EXTT5=
EXTT6=
EXTT7=
EXTT8=
EXTT9=
EXTT10=
EXTT11=
EXTT12=
PLAYORDER=
